P2
#origin 1 1
3 3
255

  0   2   0
  1   1   1
  1   1   1
